<svg width="1411" height="39" viewBox="0 0 1411 39" fill="none" xmlns="http://www.w3.org/2000/svg">
<g clip-path="url(#clip0_61_1781)">
<path d="M3.80203 32.0084C4.5869 31.9574 5.3784 31.9364 6.16106 31.9614C10.4404 32.0984 14.2721 31.7254 18.5051 31.1074C27.1188 29.8495 36.0169 30.2054 44.7232 29.9934C63.1279 29.5475 81.536 29.1265 99.9319 30.0534C100.42 30.0764 100.873 30.1534 101.295 30.2644C106.808 30.0804 112.319 29.8575 117.81 29.3925C129.499 28.4035 141.216 27.2886 152.945 26.8916C167.881 24.0098 183.031 25.1427 198.133 26.0727C213.219 27.0016 228.349 26.7936 243.46 27.1936C259.826 27.6276 276.285 26.7656 292.629 27.6426C301.355 28.1096 311.862 26.2766 320.351 29.1055C328.228 28.8605 336.112 28.7415 343.986 28.6215C356.972 28.4245 369.957 28.0716 382.94 27.7576C388.823 27.6146 394.771 27.7036 400.623 27.1226C405.244 26.6626 409.705 26.3006 414.253 26.9366C420.546 26.4256 426.892 26.3176 432.897 26.0356C451.704 25.1527 470.602 25.5147 489.43 25.3157C508.481 25.1167 527.51 25.3127 546.557 25.7577C556.665 25.9927 567.429 23.8538 577.312 26.2107C583.41 26.2337 589.544 26.6046 595.518 26.8486C606.995 27.3176 618.458 28.0465 629.895 29.0355C652.638 31.0034 675.309 34.7512 698.136 35.6712C720.583 36.5751 743.191 36.7701 765.658 37.0091C787.467 37.2411 809.293 36.6791 831.075 37.968C832.363 38.044 833.417 38.0001 834.237 39H845.728C861.433 35.0002 878.688 37.0091 894.819 35.7041C915.524 34.0282 936.311 30.8514 957.121 33.0193C957.456 33.0543 957.769 33.1203 958.072 33.1953C975.033 31.7933 991.889 29.5085 1008.92 28.7365C1027.14 27.9126 1045.37 28.2265 1063.58 28.8395C1082.68 29.4805 1101.7 30.4304 1120.76 31.5784C1125.46 31.8613 1130.15 31.7674 1134.86 31.8364C1138.5 31.8884 1143.58 31.4674 1146.78 33.3773C1147.01 33.5183 1147.22 33.6703 1147.42 33.8263C1159.45 33.8743 1171.5 34.5412 1183.61 35.0002C1207.71 35.9102 1231.39 33.6043 1255.39 32.1533C1263.4 31.6694 1271.43 31.3744 1279.47 31.2084C1291.08 29.8405 1303 28.3925 1314.19 31.2614C1318.24 31.3454 1322.28 31.4444 1326.32 31.5704C1334.45 31.8243 1343.46 31.3314 1351.67 32.8323C1354.55 32.6733 1357.36 32.8273 1360.26 33.0833C1367.55 32.9543 1374.83 32.8303 1382.11 32.5793C1385.82 32.1913 1389.53 31.8944 1393.28 32.0713C1393.49 32.0593 1393.7 32.0503 1393.91 32.0373C1394.67 31.9913 1395.34 32.0713 1395.93 32.2393C1397.06 32.3233 1398.42 31.6504 1399.56 31.7203C1401.89 31.4984 1403.99 31.9683 1406.3 31.5544C1406.93 31.4404 1407.53 31.4204 1408.1 31.4744C1409.06 31.3574 1410.06 31.4664 1411 31.8134V22.5238V9.29252V-9.68917e-07L-6.10352e-05 -9.68918e-07V9.28953V22.2029V31.4924C1.28858 31.2024 2.64677 31.3254 3.80203 32.0084Z" fill="#47A9AA"/>
<path d="M22.9607 29.8269C23.1305 29.8129 23.3024 29.8039 23.4722 29.7909C23.2616 29.9479 23.1469 30.0939 23.1988 30.2139C23.2495 30.3319 30.2869 30.1209 30.3707 30.2259C34.8407 30.1239 36.9053 30.3149 41.3698 30.2019C42.331 30.1079 44.8522 30.0389 48.2673 29.8279C49.5713 29.7479 52.8409 29.7499 54.1416 29.6849C57.5424 29.5159 60.7766 29.1179 64.0164 28.7569C71.681 28.5129 79.3478 28.2539 87.0124 27.9729C98.7843 27.5419 110.555 27.0869 122.328 26.6469C127.963 26.4379 133.599 26.2349 139.234 26.0369C142.995 25.9069 146.756 25.7759 150.516 25.6559C168.269 25.0839 186.023 24.4109 203.778 23.8229C205.363 23.7719 206.952 23.7159 208.537 23.6649C210.2 23.6119 211.864 23.5639 213.525 23.5129C215.529 23.4509 217.536 23.3899 219.541 23.3309C229.188 23.0499 238.833 22.8149 248.478 22.6499C254.982 22.5369 261.489 22.4459 267.993 22.4099C269.526 22.4009 271.057 22.4239 272.591 22.4239C279.747 22.4249 286.905 22.5019 294.065 22.6529C295.816 22.6009 297.33 23.4159 299.085 23.3859C300.407 23.4759 301.968 22.7379 303.283 22.8759C315.056 23.1859 326.827 23.5699 338.6 23.8849C341.186 23.9539 342.962 24.8449 346.113 24.3619C348.93 24.1929 351.34 24.9199 354.155 24.8079C354.991 24.8979 355.419 24.6239 356.257 24.7179C356.185 24.8199 357.18 24.6909 357.137 24.8079C361.758 24.8759 366.382 24.3699 371.002 24.3669C372.513 24.3669 374.024 24.3879 375.538 24.3769C391.011 24.2819 406.479 23.9399 421.951 23.5289C421.799 23.2329 423.678 24.0329 423.228 23.9279C425.941 23.9409 427.534 23.5929 430.247 23.6329C433.542 23.6819 436.11 23.3039 439.4 23.3229C463.863 22.6149 487.991 21.5859 512.458 21.4009C512.46 21.4009 512.461 21.4009 512.466 21.4009C511.002 21.2219 509.537 21.0489 508.073 20.8869C497.792 19.7629 487.514 19.9079 477.183 20.1939C457.104 20.7499 437.165 20.0829 417.093 20.0249C395.953 19.9629 374.378 19.5119 353.218 20.6879C346.675 19.9639 340.188 19.1689 333.525 19.4049C322.594 19.7919 311.66 19.6109 300.741 19.7329C294.914 19.3549 289.084 19.5299 282.957 19.7739C271.216 20.2419 259.469 20.4369 247.72 20.6369C247.55 20.5789 247.36 20.5399 247.142 20.5399C233.664 20.5359 220.18 20.4859 206.697 20.4679C202.007 19.8149 197.232 19.9659 192.443 20.4639C152.733 20.5129 113.03 21.1119 73.4536 24.3869C72.7889 24.4419 72.3501 24.7949 72.1263 25.2359C65.4042 25.3319 58.6876 25.5319 51.9743 25.8639C51.8939 25.8679 51.8134 25.8749 51.7319 25.8789C47.3159 25.7879 42.9176 25.8039 38.5413 26.0029C25.6747 26.5859 12.839 27.7279 2.1092e-05 28.7869V29.9819C7.64918 30.0349 15.306 29.9709 22.9607 29.8269ZM104.265 25.1869C104.27 25.1949 104.272 25.2029 104.273 25.2089C104.153 25.2089 104.026 25.2089 103.903 25.2059C104.024 25.2029 104.146 25.1949 104.265 25.1869Z" fill="white"/>
<path d="M829.77 36.3812C834.463 35.9032 839.123 36.6663 843.807 36.1943C846.211 36.1803 849.224 35.9043 851.628 35.9003C859.224 35.8853 866.067 34.9552 873.646 35.0022C887.224 34.4042 900.8 33.3462 914.375 32.7062C939.083 31.5432 963.791 30.4102 988.509 29.6392C988.797 29.6302 989.085 29.6232 989.373 29.6152C994.63 29.4512 999.889 29.2962 1005.15 29.1702C1010.39 29.0452 1015.63 28.9632 1020.88 28.9042C1024.39 28.8642 1027.23 29.1293 1030.74 29.1163C1031.52 29.0863 1033.97 29.3122 1034.75 29.2862C1039.8 29.1142 1042.38 29.1133 1047.42 29.1163C1047.7 29.1193 1049.21 29.1133 1049.47 29.1163C1049.56 29.1163 1051.81 29.2243 1051.9 29.2243C1058.95 29.3163 1063.89 29.0332 1071.1 29.3182C1086.41 29.9202 1101.74 29.7302 1117.05 30.0972C1121.44 30.2022 1125.82 30.2862 1130.21 30.3562C1132.58 30.3962 1134.94 30.4282 1137.31 30.4582C1108.61 28.4112 1080 26.0942 1051.27 25.8432C1048.24 25.7932 1045.2 25.7642 1042.17 25.7592C1041.94 25.3672 1041.5 25.0812 1040.86 25.0832C998.554 25.1852 956.434 29.6992 914.123 29.8942C893.178 29.9912 872.186 29.5802 851.285 31.0372C848.541 31.2292 845.795 31.4722 843.05 31.7382C821.103 31.8822 799.167 32.4953 777.274 34.1333C774.017 34.3773 770.761 34.5573 767.506 34.7113C774.239 35.0333 780.974 35.3103 787.713 35.5253C801.667 35.9733 815.792 36.5242 829.77 36.3812Z" fill="white"/>
<path d="M1339.47 28.277C1346.18 29.837 1352.64 29.318 1358.8 28.372C1362.41 27.818 1377 29.837 1378.68 29.044C1380.1 29.128 1381.52 29.224 1382.94 29.301C1383.47 29.331 1384.01 29.347 1384.55 29.375C1381.52 26.26 1375.25 25.682 1371.19 25.235C1360.42 24.052 1349.31 24.794 1338.53 25.497C1326.92 26.256 1315.32 27.059 1303.71 27.863C1315.62 27.687 1327.55 27.918 1339.47 28.277Z" fill="white"/>
<path d="M1230.01 35.3719C1250.64 34.4179 1271.33 33.2889 1291.98 31.8849C1300.12 31.6129 1308.26 31.4129 1316.4 31.3459C1339.45 31.1529 1362.57 36.4759 1385.55 33.5499C1385.91 33.5039 1386.17 33.3759 1386.36 33.2019C1392.22 32.8559 1398.07 32.4239 1403.92 31.9569C1391.49 31.7629 1379.06 31.4799 1366.63 31.1039C1365.52 31.1189 1364.41 31.135 1363.3 31.139C1363.1 31.139 1362.93 31.1729 1362.77 31.2209C1362.64 31.2619 1362.61 30.0079 1362.5 30.0719C1361.06 29.9969 1359.54 31.2059 1358.09 31.1039C1341.92 30.6979 1326.04 30.3459 1310.18 30.5679C1309.78 30.5729 1309.37 30.5719 1308.97 30.5789C1265.62 31.2669 1222.3 33.5069 1178.95 33.9439C1164.78 34.0869 1150.6 33.8929 1136.41 33.5059C1167.57 35.5909 1198.67 36.8209 1230.01 35.3719Z" fill="white"/>
<path d="M360.819 27.1906C358.994 27.1996 357.168 27.2036 355.342 27.2116C342.118 27.2656 328.894 27.2736 315.674 27.2456C308.844 27.2306 302.009 26.8666 295.175 26.4236C290.505 26.3336 278.48 23.9126 273.812 23.7556C263.826 23.4196 261.197 25.3426 251.21 24.9906C235.593 25.3796 219.98 25.9736 204.368 26.6536C218.728 26.7746 233.093 27.1826 247.433 27.6796C288.504 29.1006 329.351 29.7216 370.447 28.7166C411.379 27.7136 452.256 26.6396 493.21 26.8286C513.076 26.9206 532.942 27.2766 552.776 28.3526C566.195 29.0816 579.569 28.5666 592.961 28.2306C598.232 28.8016 603.49 29.4776 608.742 30.0286C611.105 30.2786 613.473 30.4996 615.838 30.7376C616.083 31.0796 616.495 31.3256 617.085 31.3266C618.802 31.3316 620.517 31.3516 622.233 31.3746C637.943 32.8726 653.683 34.0996 669.453 34.9496C689.538 36.0326 709.261 38.2266 729.403 37.9756C738.952 37.8546 748.497 38.2746 758.045 38.1566C761.144 38.1196 764.239 37.9766 767.334 37.7886C763.112 37.6406 758.891 37.4836 754.669 37.3096C744.762 36.8986 734.87 36.1846 724.984 35.3526C722.485 35.3606 721.445 34.3626 718.944 34.3816C718.931 34.3816 717.916 34.1646 717.902 34.1646C717.971 33.9386 717.263 34.4536 717.219 34.2256C707.298 33.3446 697.638 32.8796 687.711 32.0496C687.813 30.9456 677.123 30.4206 671.829 29.8106C661.497 28.6236 651.348 29.0556 640.954 28.5476C640.735 27.8376 640.511 28.9926 640.5 28.9426C625.55 28.1016 610.597 27.3166 595.653 26.4176C591.269 26.1556 586.882 25.9336 582.497 25.7296C563.809 24.8596 545.121 24.4956 526.434 24.4636C496.83 24.4156 467.221 25.1816 437.602 26.0046C412.022 26.7146 386.419 27.0566 360.819 27.1906Z" fill="white"/>
<path d="M1411 28.7857C1405.62 29.2337 1400.24 29.3847 1394.86 29.7767C1400.23 29.9297 1405.62 30.0057 1411 30.0117V28.7857Z" fill="white"/>
<path d="M439.072 23.0506C433.364 23.2156 427.659 23.3746 421.954 23.5276C406.483 23.9386 391.014 24.2806 375.541 24.3756C374.027 24.3876 372.516 24.3656 371.005 24.3656C366.385 24.3686 361.762 24.3366 357.141 24.2686C353.548 24.2166 349.955 24.1586 346.364 24.0776C343.776 24.0186 341.19 23.9536 338.604 23.8846C326.83 23.5706 315.06 23.1856 303.287 22.8756C300.213 22.7966 297.142 22.7166 294.069 22.6516C286.909 22.5016 279.752 22.4236 272.595 22.4226C271.062 22.4226 269.531 22.4006 267.997 22.4086C261.493 22.4446 254.986 22.5356 248.482 22.6486C238.837 22.8136 229.193 23.0476 219.545 23.3296C217.541 23.3886 215.533 23.4496 213.529 23.5116C211.867 23.5636 210.204 23.6116 208.541 23.6636C206.956 23.7146 205.368 23.7706 203.783 23.8216C186.027 24.4096 168.274 25.0826 150.521 25.6546C146.761 25.7746 142.999 25.9056 139.238 26.0356C133.603 26.2336 127.968 26.4366 122.333 26.6456C110.56 27.0856 98.7887 27.5416 87.0168 27.9716C78.2796 28.2916 69.5403 28.5946 60.8053 28.8636C55.0863 29.0426 49.3672 29.2116 43.6494 29.3536C43.5711 29.3566 43.4885 29.3586 43.4103 29.3586C38.9458 29.4716 34.4768 29.5826 30.0068 29.6836C27.661 29.7366 25.3131 29.7836 22.9662 29.8266C15.3115 29.9706 7.65351 30.0346 0.00655204 29.9806V32.0006C21.7536 32.3116 43.5061 32.3816 65.2476 32.2566C85.4315 32.1416 105.609 31.1276 125.788 30.1646C126.264 30.1436 126.74 30.1206 127.216 30.0986C133.414 29.8036 139.611 29.5156 145.809 29.2616C149.664 29.1056 153.515 28.9396 157.369 28.7706C162.7 28.5376 168.032 28.2996 173.361 28.0556C183.7 27.5836 194.038 27.1056 204.375 26.6546C219.987 25.9746 235.599 25.3806 251.216 24.9916C253.557 24.9336 255.897 24.8646 258.237 24.8176C270.535 24.5656 282.856 25.6246 295.181 26.4236C302.015 26.8666 308.849 27.2316 315.68 27.2456C328.901 27.2726 342.124 27.2656 355.348 27.2116C357.175 27.2036 358.999 27.1996 360.826 27.1906C386.425 27.0556 412.027 26.7136 437.609 26.0046C467.228 25.1816 496.837 24.4156 526.442 24.4636C545.129 24.4946 563.817 24.8596 582.505 25.7296C586.89 25.9336 591.276 26.1566 595.66 26.4176C610.605 27.3166 625.557 28.1026 640.508 28.9426C651.983 29.5866 663.457 30.2586 674.919 31.0566C679.188 31.3536 683.455 31.6956 687.719 32.0496C697.646 32.8796 707.562 33.8176 717.483 34.6976C719.986 34.9206 722.487 35.1426 724.99 35.3516C734.876 36.1836 744.769 36.8976 754.675 37.3086C758.897 37.4826 763.119 37.6386 767.34 37.7876C841.095 40.3856 914.786 38.9856 988.381 32.8406C1022.03 30.0306 1055.8 30.1096 1089.6 31.6906C1105.19 32.4206 1120.8 33.0796 1136.42 33.5046C1150.6 33.8916 1164.78 34.0846 1178.96 33.9426C1222.31 33.5046 1265.63 31.2646 1308.98 30.5776C1309.38 30.5706 1309.78 30.5716 1310.19 30.5666C1326.04 30.3446 1341.92 30.6966 1358.1 31.1026C1359.65 31.1416 1361.22 31.1816 1362.78 31.2196C1362.94 31.1716 1363.11 31.1376 1363.3 31.1376C1364.41 31.1336 1365.52 31.1166 1366.63 31.1026C1363.64 31.0116 1360.65 30.9246 1357.67 30.8236C1344.87 30.3866 1332.1 29.3896 1319.33 28.2696C1325.45 28.4326 1331.61 28.2156 1337.71 28.3156C1339 28.3366 1340.28 28.3366 1341.57 28.3366C1340.87 28.3156 1340.18 28.2956 1339.48 28.2756C1327.55 27.9166 1315.62 27.6856 1303.71 27.8616C1301.53 27.8916 1299.34 27.9196 1297.16 27.9826C1243.88 29.4926 1190.62 31.1176 1137.32 30.4566C1134.95 30.4276 1132.58 30.3946 1130.22 30.3546C1125.83 30.2856 1121.44 30.2016 1117.06 30.0956C1101.75 29.7286 1086.42 29.3646 1071.1 29.1146C1057.87 28.8976 1044.64 28.7756 1031.42 28.8246C1027.91 28.8386 1024.39 28.8626 1020.88 28.9026C1015.64 28.9616 1010.39 29.0436 1005.15 29.1686C999.894 29.2946 994.637 29.4496 989.38 29.6136C989.091 29.6226 988.803 29.6296 988.516 29.6376C963.797 30.4086 939.089 31.5416 914.382 32.7046C900.807 33.3446 887.23 33.9886 873.653 34.5866C866.678 34.8936 859.704 35.1896 852.728 35.4636C845.019 35.7666 837.315 35.9406 829.617 36.0206C815.637 36.1656 801.674 35.9716 787.721 35.5226C780.983 35.3066 774.248 35.0306 767.514 34.7086C738.666 33.3236 709.856 31.0596 681.049 28.7316C656.557 26.7516 632.037 24.7826 607.482 23.7436C575.839 22.4046 544.137 21.1616 512.475 21.3986C512.47 21.3986 512.468 21.3986 512.466 21.3986C487.994 21.5846 463.532 22.3416 439.072 23.0506Z" fill="black"/>
<path d="M1378.68 29.044C1371.78 28.637 1364.88 28.181 1357.99 27.673C1352.54 28.143 1347.06 28.337 1341.57 28.338C1340.28 28.338 1338.99 28.338 1337.71 28.317C1331.6 28.217 1325.44 28.434 1319.32 28.271C1332.09 29.391 1344.86 30.388 1357.66 30.825C1360.65 30.927 1363.64 31.013 1366.63 31.104C1379.06 31.48 1391.49 31.762 1403.92 31.957C1406.28 31.993 1408.64 31.972 1411 32.001V30.013C1405.62 30.006 1400.23 29.931 1394.86 29.778C1391.42 29.678 1387.98 29.55 1384.55 29.376C1384.01 29.348 1383.47 29.332 1382.94 29.302C1381.52 29.224 1380.1 29.128 1378.68 29.044Z" fill="black"/>
</g>
<defs>
<clipPath id="clip0_61_1781">
<rect width="1411" height="39" fill="white"/>
</clipPath>
</defs>
</svg>
